<svg width="64" height="64" viewBox="0 0 64 64" fill="none" xmlns="http://www.w3.org/2000/svg">
<g clip-path="url(#clip0_97_14)">
<g filter="url(#filter0_d_97_14)">
<path d="M14.0031 23.5651C15.4204 27.2856 16.2643 31.5138 16.6204 35.4663C16.9186 38.7766 18.0031 42.2614 18.0031 45.5651" stroke="white" stroke-width="3" stroke-linecap="round"/>
<path d="M21.0031 29.9514C22.9005 32.2737 24.138 34.8651 25.2684 37.632C25.853 39.0629 26.7548 41.8468 28.3614 42.4465C30.3297 43.1813 31.8016 40.3124 32.6766 38.9896C35.1548 35.2428 36.4608 30.9559 36.7299 26.4819C36.7362 26.3768 37.1017 24.9183 37.2786 25.4889C37.7223 26.9201 37.6153 28.65 37.6153 30.1274C37.6153 32.899 36.7865 35.7563 37.1788 38.5245C37.292 39.3233 38.3849 38.6467 38.6505 38.3988C40.5393 36.6361 42.1001 34.4514 43.502 32.2895C47.2285 26.5428 50.9544 20.7108 54.0031 14.5651" stroke="white" stroke-width="3" stroke-linecap="round"/>
<path d="M7 32.543C8.61052 29.5697 11.2828 26.9197 13.3367 24.2214C16.2901 20.3415 19.842 16.7709 23.1993 13.237" stroke="white" stroke-width="3" stroke-linecap="round"/>
<path d="M28.2496 31.567C28.79 29.1892 30.1894 26.9459 31.4466 24.8805C32.8527 22.5705 34.4766 20.8533 36.8585 19.573C37.6777 19.1327 39.1324 18.4029 40.0973 18.4029C40.8829 18.4029 41.1411 19.7231 41.4137 20.2835C41.5869 20.6394 41.8443 21.758 42.354 21.788C43.1579 21.8352 44.1061 20.645 44.5689 20.0954C46.0733 18.309 47.354 16.5053 48.1838 14.3074C48.8913 12.4337 49.6077 10.7015 50.6286 9" stroke="white" stroke-width="3" stroke-linecap="round"/>
<path d="M11 55C13.3446 54.502 15.6378 53.5936 17.9299 52.8873C22.0405 51.6208 26.1429 50.3252 30.2472 49.0376C39.2229 46.2217 48.1365 43.163 57 40" stroke="white" stroke-width="3" stroke-linecap="round"/>
</g>
</g>
<defs>
<filter id="filter0_d_97_14" x="1.49971" y="7.49979" width="61.0007" height="57.0005" filterUnits="userSpaceOnUse" color-interpolation-filters="sRGB">
<feFlood flood-opacity="0" result="BackgroundImageFix"/>
<feColorMatrix in="SourceAlpha" type="matrix" values="0 0 0 0 0 0 0 0 0 0 0 0 0 0 0 0 0 0 127 0" result="hardAlpha"/>
<feOffset dy="4"/>
<feGaussianBlur stdDeviation="2"/>
<feComposite in2="hardAlpha" operator="out"/>
<feColorMatrix type="matrix" values="0 0 0 0 0 0 0 0 0 0 0 0 0 0 0 0 0 0 0.25 0"/>
<feBlend mode="normal" in2="BackgroundImageFix" result="effect1_dropShadow_97_14"/>
<feBlend mode="normal" in="SourceGraphic" in2="effect1_dropShadow_97_14" result="shape"/>
</filter>
<clipPath id="clip0_97_14">
<rect width="64" height="64" fill="white"/>
</clipPath>
</defs>
</svg>
