<svg width="64" height="64" viewBox="0 0 64 64" fill="none" xmlns="http://www.w3.org/2000/svg">
<g filter="url(#filter0_d_105_10)">
<path d="M10.7781 48.2252C13.1228 47.7271 15.4159 46.8187 17.7081 46.1125C21.8186 44.8459 25.9211 43.5503 30.0254 42.2627C39.001 39.4469 47.9146 36.3882 56.7781 33.2252" stroke="white" stroke-width="3" stroke-linecap="round"/>
</g>
<path d="M27.5879 19.2252C27.5879 23.407 27.2529 27.3606 26.1951 31.4247C25.8847 32.6174 25.1538 36.04 24.8153 34.855C24.5111 33.7903 26.1574 31.4602 26.7883 30.7283C27.557 29.8366 32.6946 26.041 32.6946 29.2066C32.6946 30.9017 31.1282 32.2811 30.6055 33.8491" stroke="white" stroke-width="3" stroke-linecap="round"/>
<path d="M38.0103 18.2252C38.3081 21.2697 38.99 24.4344 38.5777 27.4973C38.3439 29.2336 37.7781 31.1036 37.7781 32.8491" stroke="white" stroke-width="3" stroke-linecap="round"/>
<path d="M43.7781 22.6179C43.7781 24.9917 45.1709 27.2444 45.1709 29.6849C45.1709 31.9931 45.1169 24.7002 46.5636 22.9016C47.5855 21.6312 48.9082 21.2252 50.4582 21.2252C51.7124 21.2252 52.075 22.0002 52.4957 23.0822C52.6943 23.5928 52.4957 29.8316 52.4957 28.3548" stroke="white" stroke-width="3" stroke-linecap="round"/>
<path d="M22.5303 16.5461C22.2559 15.7227 19.8495 16.0748 19.2316 16.0748C16.6217 16.0748 14.8183 16.5664 12.6343 18.0121C7.32823 21.5246 10.6683 27.9743 13.6815 31.7305C14.9734 33.3409 17.088 34.7443 18.0535 36.5738C18.7015 37.8015 17.6762 38.3586 16.6922 38.93C14.6522 40.1145 12.3863 40.8238 10.2257 41.7574C9.26038 42.1745 6.16341 42.6999 7.21501 42.6999" stroke="white" stroke-width="3" stroke-linecap="round"/>
<defs>
<filter id="filter0_d_105_10" x="5.27782" y="31.7248" width="57.0007" height="26.0007" filterUnits="userSpaceOnUse" color-interpolation-filters="sRGB">
<feFlood flood-opacity="0" result="BackgroundImageFix"/>
<feColorMatrix in="SourceAlpha" type="matrix" values="0 0 0 0 0 0 0 0 0 0 0 0 0 0 0 0 0 0 127 0" result="hardAlpha"/>
<feOffset dy="4"/>
<feGaussianBlur stdDeviation="2"/>
<feComposite in2="hardAlpha" operator="out"/>
<feColorMatrix type="matrix" values="0 0 0 0 0 0 0 0 0 0 0 0 0 0 0 0 0 0 0.25 0"/>
<feBlend mode="normal" in2="BackgroundImageFix" result="effect1_dropShadow_105_10"/>
<feBlend mode="normal" in="SourceGraphic" in2="effect1_dropShadow_105_10" result="shape"/>
</filter>
</defs>
</svg>
