<svg width="64" height="64" viewBox="0 0 64 64" fill="none" xmlns="http://www.w3.org/2000/svg">
<line x1="45" y1="52.5" x2="18" y2="52.5" stroke="white" stroke-width="2"/>
<path d="M18 22V55.5C18 56.6046 18.8954 57.5 20 57.5H43C44.1046 57.5 45 56.6046 45 55.5V22" stroke="white" stroke-width="2" stroke-linecap="round"/>
<path d="M9.52986 11.2575C9.66381 10.7217 10.2067 10.3959 10.7425 10.5299C11.2783 10.6638 11.6041 11.2067 11.4701 11.7425L9.52986 11.2575ZM6.9319 25.7724L7.90204 26.0149L6.9319 25.7724ZM19 30.5H9.84233V28.5H19V30.5ZM5.96176 25.5299L9.52986 11.2575L11.4701 11.7425L7.90204 26.0149L5.96176 25.5299ZM9.84233 30.5C7.24004 30.5 5.33061 28.0544 5.96176 25.5299L7.90204 26.0149C7.58647 27.2772 8.54119 28.5 9.84233 28.5V30.5Z" fill="white"/>
<path d="M10.5 11.5L23.5 6" stroke="white" stroke-width="2" stroke-linecap="round"/>
<path d="M9.52986 11.2575C9.66381 10.7217 10.2067 10.3959 10.7425 10.5299C11.2783 10.6638 11.6041 11.2067 11.4701 11.7425L9.52986 11.2575ZM6.9319 25.7724L7.90204 26.0149L6.9319 25.7724ZM19 30.5H9.84233V28.5H19V30.5ZM5.96176 25.5299L9.52986 11.2575L11.4701 11.7425L7.90204 26.0149L5.96176 25.5299ZM9.84233 30.5C7.24004 30.5 5.33061 28.0544 5.96176 25.5299L7.90204 26.0149C7.58647 27.2772 8.54119 28.5 9.84233 28.5V30.5Z" fill="white"/>
<path d="M10.5 11.5L23.5 6" stroke="white" stroke-width="2" stroke-linecap="round"/>
<path d="M54.4667 11.2441C54.3254 10.7102 53.778 10.392 53.2441 10.5333C52.7102 10.6746 52.392 11.222 52.5333 11.7559L54.4667 11.2441ZM45 29.5H54.1026V27.5H45V29.5ZM57.9694 24.4764L54.4667 11.2441L52.5333 11.7559L56.036 24.9882L57.9694 24.4764ZM54.1026 29.5C56.7276 29.5 58.6411 27.0141 57.9694 24.4764L56.036 24.9882C56.3718 26.2571 55.4151 27.5 54.1026 27.5V29.5Z" fill="white"/>
<path d="M53.5 11.5L40 6" stroke="white" stroke-width="2" stroke-linecap="round"/>
<path d="M22 7.5L24.5954 11.2686C24.8754 11.6751 25.2958 11.9637 25.7758 12.0789L31.2302 13.388C31.537 13.4616 31.8569 13.4616 32.1637 13.388L37.7142 12.0559C38.1357 11.9547 38.513 11.7193 38.7891 11.3852L42 7.5" stroke="white" stroke-width="2" stroke-linecap="round"/>
<path d="M23.5 6H40" stroke="white" stroke-width="2" stroke-linecap="round"/>
<path d="M23.6843 30.2542C25.7271 26.9935 27.9055 23.8193 29.943 20.5593" stroke="white" stroke-width="2" stroke-linecap="round"/>
<path d="M25.0342 42.2808C26.9778 38.517 29.1602 34.5812 31.9474 31.3723C33.1004 30.0449 34.4778 28.9091 35.8336 27.7998" stroke="white" stroke-width="2" stroke-linecap="round"/>
<path d="M31.7944 45.1692C33.4898 42.96 34.932 40.5409 36.5219 38.2485C37.8534 36.3287 38.7002 33.8489 40.5671 32.4487" stroke="white" stroke-width="2" stroke-linecap="round"/>
</svg>
